<svg width="20" height="20" viewBox="0 0 20 20" fill="none" xmlns="http://www.w3.org/2000/svg">
<g clip-path="url(#clip0_34333_6)">
<path d="M4.39893 9.47742L12.8604 0.176819C13.0561 -0.0384587 13.3247 -0.164517 13.6166 -0.178062C13.9085 -0.191607 14.1874 -0.0909537 14.4019 0.105292L15.0848 0.729469C15.5292 1.13622 15.5608 1.82934 15.1553 2.27487L8.05006 10.085L15.8454 17.212C16.0599 17.4082 16.1856 17.6772 16.199 17.9697C16.2123 18.2625 16.1116 18.5421 15.9159 18.7575L15.2928 19.4421C15.0969 19.6574 14.8285 19.7835 14.5366 19.797C14.2447 19.8106 13.9657 19.7099 13.7512 19.5137L4.46971 11.0282C4.25471 10.8313 4.12922 10.561 4.1165 10.268C4.10243 9.97388 4.20277 9.6932 4.39893 9.47742Z" fill="white"/>
</g>
<defs>
<clipPath id="clip0_34333_6">
<rect width="19.9396" height="20" fill="white" transform="matrix(-1 0 -2.22607e-08 1 19.9396 0)"/>
</clipPath>
</defs>
</svg>
